<?xml version="1.0" ?><svg id="Layer_1" style="enable-background:new 0 0 128 128;" version="1.1" viewBox="0 0 128 128" xml:space="preserve" xmlns="http://www.w3.org/2000/svg" xmlns:xlink="http://www.w3.org/1999/xlink"><style type="text/css">
	.st0{fill:#FF5050;}
	.st1{fill:#FFFFFF;}
	.st2{fill:#9B0270;}
	.st3{fill:#FFD952;}
	.st4{fill:#FF9D00;}
	.st5{fill:#DFE8F4;}
	.st6{fill:#52EFBB;}
	.st7{fill:#33BC8B;}
	.st8{fill:#0795FF;}
	.st9{fill:#500599;}
	.st10{fill:#4D28A8;}
	.st11{fill:#35DC86;}
	.st12{fill:#27A88F;}
</style><g><path class="st5" d="M91,46.7c-0.7-1.2-1.4-2.3-2.2-3.3c-6.5-9.3-16.4-10.6-20-10.7c-8.6-0.9-16.7,5-21.1,5c-4.3,0-11-4.9-18.1-4.8   C20.2,33,11.6,38.3,6.8,46.7c-9.7,16.8-2.5,41.8,7,55.4c4.6,6.7,10.1,14.2,17.4,13.9c6.9-0.3,9.6-4.4,17.8-4.5   c8.2,0.1,10.9,4.2,17.8,4.5c1.5,0.1,2.9-0.2,4.2-0.7c5.5-1.8,9.5-7.3,13.3-12.9c5.3-7.8,7.5-15.3,7.6-15.6c0,0,0,0,0,0   C96.3,73.7,97.7,58.3,91,46.7z"/><path class="st8" d="M91.6,87c3,1.3,6.4,2,9.9,2c13.8,0,25-11.2,25-25s-11.2-25-25-25c-4.8,0-9.3,1.4-13.1,3.7L91.6,87z"/><path class="st10" d="M76.5,64c0,10.3,6.3,19.2,15.2,23c0-0.2,0.1-0.3,0.1-0.3c0,0,0,0,0,0c4.6-13,5.9-28.4-0.7-40   c-0.7-1.2-1.4-2.3-2.2-3.3c-0.1-0.2-0.3-0.4-0.4-0.6C81.2,47.2,76.5,55,76.5,64z"/><path class="st5" d="M63.2,23.6C67,18.9,69.6,12.4,68.9,6c-5.5,0.2-12.2,3.7-16.2,8.3c-3.6,4.1-6.7,10.7-5.8,17   C53,31.8,59.3,28.2,63.2,23.6z"/></g></svg>